<svg xmlns="http://www.w3.org/2000/svg" xmlns:xlink="http://www.w3.org/1999/xlink" width="250.5" height="250" viewBox="0 0 250.5 250">
  <defs>
    <linearGradient id="linear-gradient" x1="0.524" y1="1" x2="0.476" gradientUnits="objectBoundingBox">
      <stop offset="0" stop-color="#046635"/>
      <stop offset="0.628" stop-color="#046635"/>
      <stop offset="0.862" stop-color="#02331b"/>
      <stop offset="1"/>
    </linearGradient>
  </defs>
  <g id="Group_40214" data-name="Group 40214" transform="translate(4607.5 -1542.5)">
    <rect id="Rectangle_4_copy_3" data-name="Rectangle 4 copy 3" width="250" height="250" transform="translate(-4607.5 1542.5)" fill="rgba(255,255,255,0.01)"/>
    <path id="Shape_1_copy_10" data-name="Shape 1 copy 10" d="M62.482,122.635l-.063.007c-.065,0-.128-.005-.193-.005a10.3,10.3,0,0,1-7.735-3.483,14.719,14.719,0,0,1-2.447-4C48.8,107.521,18.744,23.642,12.893,7.3A10.314,10.314,0,0,0,3.907.04,3.744,3.744,0,0,0,3.39,0H41.285a10.309,10.309,0,0,1,8,3.8A12.44,12.44,0,0,1,51.061,6.83c2.288,5.53,43.072,115.837,43.072,115.837ZM0,93.981H.152L0,94.4Z" transform="translate(-4514.906 1557.685)" fill="#00b7d8"/>
    <path id="Shape_1_copy_10-2" data-name="Shape 1 copy 10" d="M43.116,6.83A12.4,12.4,0,0,1,44.9,3.8a10.322,10.322,0,0,1,8-3.8H90.834a3.747,3.747,0,0,0-.517.04,10.323,10.323,0,0,0-9,7.263c-1.61,4.492-5.05,14.086-9.262,25.8C65.238,52.072,56.4,76.6,50.043,93.981h-.151V94.4c-3.918,10.717-6.864,18.646-7.76,20.753a14.7,14.7,0,0,1-2.45,4,10.318,10.318,0,0,1-7.742,3.483c-.065,0-.129,0-.194.005l-.063-.007L0,122.667S40.825,12.36,43.116,6.83Zm6.776,87.15h.151l-.151.415Z" transform="translate(-4564.748 1557.685)" fill="url(#linear-gradient)"/>
    <path id="Path_42277" data-name="Path 42277" d="M284.318,228.25h.654l0,6.117h4.51v.552h-5.162Z" transform="translate(-4700.922 1481.599)" fill="#000104"/>
    <path id="Path_42280" data-name="Path 42280" d="M29.951,198.889,59.9,245.5H35.274l-5.322-11.214L24.63,245.5H0Z" transform="translate(-4607 1491.299)" fill="#302f2f"/>
    <path id="Path_42281" data-name="Path 42281" d="M129.214,232.068v14.676H92.869V202.65h20.849v29.418Z" transform="translate(-4637.679 1490.056)" fill="#302f2f"/>
    <path id="Path_42282" data-name="Path 42282" d="M189.129,232.068v14.676H152.785V202.65h20.848v29.418Z" transform="translate(-4657.471 1490.056)" fill="#302f2f"/>
    <path id="Path_42283" data-name="Path 42283" d="M233.547,234.188h18.647v12.557H212.7v-44.1h39.494v12.559H233.547v5.363h15.5v8.252h-15.5Z" transform="translate(-4677.264 1490.056)" fill="#302f2f"/>
    <path id="Path_42284" data-name="Path 42284" d="M278.255,202.65l26.206,12.316V202.65H325.31v44.1l-26.2-12.316v12.316H278.255Z" transform="translate(-4698.92 1490.056)" fill="#302f2f"/>
    <path id="Path_42285" data-name="Path 42285" d="M.02,290.938l9.229-.016c9.909-.015,15.393,5.494,15.393,12.526,0,6.983-5.484,12.435-15.393,12.435H.02Zm9.224,22.9c8.714-.009,12.955-4.506,12.955-10.386,0-5.906-4.241-10.452-12.955-10.472l-6.79-.009v20.871Z" transform="translate(-4607.006 1460.896)" fill="#010101"/>
    <rect id="Rectangle_3099" data-name="Rectangle 3099" width="2.446" height="24.945" transform="translate(-4560.203 1751.833)" fill="#010101"/>
    <path id="Path_42286" data-name="Path 42286" d="M106.618,303.246c0-7.134,6.03-12.93,14.392-12.93a15.931,15.931,0,0,1,11.169,4.188l-1.858,1.381a13.332,13.332,0,0,0-9.316-3.45c-6.934,0-11.953,4.8-11.953,10.806,0,5.955,5.13,10.759,12.063,10.759a13.6,13.6,0,0,0,9.853-4.173v-6.837h2.447v7.582a16.131,16.131,0,0,1-12.292,5.537c-8.362,0-14.5-5.781-14.5-12.864" transform="translate(-4642.22 1461.096)" fill="#010101"/>
    <rect id="Rectangle_3100" data-name="Rectangle 3100" width="2.448" height="24.945" transform="translate(-4486.187 1751.833)" fill="#010101"/>
    <path id="Path_42287" data-name="Path 42287" d="M225.208,293.013H214.85l-.013-2.068h23.14v2.068H227.65v22.875h-2.442Z" transform="translate(-4677.969 1460.888)" fill="#010101"/>
    <path id="Path_42288" data-name="Path 42288" d="M285.421,289.584l14.961,25.9h-2.657l-3.545-6.256H276.548l-3.634,6.259h-2.72Zm7.66,17.737L285.4,293.879l-7.753,13.442Z" transform="translate(-4696.256 1461.338)" fill="#010101"/>
    <path id="Path_42289" data-name="Path 42289" d="M344.495,290.943h2.448l-.011,22.878H363.8v2.068H344.495Z" transform="translate(-4720.801 1460.889)" fill="#010101"/>
    <path id="Path_42290" data-name="Path 42290" d="M224.577,7.174V.841h-2.363V0h5.679V.841h-2.364V7.174Z" transform="translate(-4680.407 1557)" fill="#1a1818"/>
    <path id="Path_42291" data-name="Path 42291" d="M232.656,7.174V0h1.422l1.7,5.078c.157.471.27.827.342,1.061.082-.26.21-.644.386-1.15L238.228,0H239.5V7.174h-.913v-6l-2.093,6h-.855l-2.072-6.113V7.174Z" transform="translate(-4683.856 1557)" fill="#1a1818"/>
    <rect id="Rectangle_3101" data-name="Rectangle 3101" width="249.999" height="220.206" transform="translate(-4607 1557)" fill="none"/>
  </g>
</svg>
